<?xml version="1.0" encoding="UTF-8" standalone="no"?>
<!-- Created with Inkscape (http://www.inkscape.org/) -->

<svg
   xmlns:dc="http://purl.org/dc/elements/1.1/"
   xmlns:cc="http://creativecommons.org/ns#"
   xmlns:rdf="http://www.w3.org/1999/02/22-rdf-syntax-ns#"
   xmlns:svg="http://www.w3.org/2000/svg"
   xmlns="http://www.w3.org/2000/svg"
   xmlns:sodipodi="http://sodipodi.sourceforge.net/DTD/sodipodi-0.dtd"
   xmlns:inkscape="http://www.inkscape.org/namespaces/inkscape"
   width="192"
   height="64"
   viewBox="0 0 50.799998 16.933334"
   version="1.1"
   id="svg8"
   inkscape:version="0.92.4 (5da689c313, 2019-01-14)"
   sodipodi:docname="app_title_2.svg">
  <defs
     id="defs2" />
  <sodipodi:namedview
     id="base"
     pagecolor="#ffffff"
     bordercolor="#666666"
     borderopacity="1.0"
     inkscape:pageopacity="0.0"
     inkscape:pageshadow="2"
     inkscape:zoom="2.8"
     inkscape:cx="45.353357"
     inkscape:cy="8.5717076"
     inkscape:document-units="px"
     inkscape:current-layer="layer1"
     showgrid="false"
     units="px"
     inkscape:snap-bbox="false"
     inkscape:snap-bbox-edge-midpoints="true"
     inkscape:window-width="1366"
     inkscape:window-height="705"
     inkscape:window-x="-8"
     inkscape:window-y="-8"
     inkscape:window-maximized="1" />
  <metadata
     id="metadata5">
    <rdf:RDF>
      <cc:Work
         rdf:about="">
        <dc:format>image/svg+xml</dc:format>
        <dc:type
           rdf:resource="http://purl.org/dc/dcmitype/StillImage" />
        <dc:title />
      </cc:Work>
    </rdf:RDF>
  </metadata>
  <g
     inkscape:label="Layer 1"
     inkscape:groupmode="layer"
     id="layer1"
     transform="translate(0,-280.06666)">
    <path
       style="font-style:normal;font-variant:normal;font-weight:bold;font-stretch:normal;font-size:18.66666603px;line-height:1.25;font-family:'AMS Manthan';-inkscape-font-specification:'AMS Manthan Bold';font-variant-ligatures:normal;font-variant-caps:normal;font-variant-numeric:normal;font-feature-settings:normal;text-align:start;letter-spacing:0.30000001px;word-spacing:0px;writing-mode:lr-tb;text-anchor:start;fill:#ff6200;fill-opacity:1;stroke:none;stroke-width:2.14484906"
       d="M 43.595703 6.4121094 L 43.59375 6.4140625 C 43.540459 6.4140625 43.528042 6.4534551 43.554688 6.5332031 C 43.634662 6.8264945 43.739781 7.1189314 43.873047 7.4121094 C 43.979667 7.6785661 44.101109 7.9587374 44.234375 8.2519531 C 44.500907 8.8116634 44.793435 9.3719304 45.113281 9.9316406 C 45.406459 10.464743 45.740128 10.983815 46.113281 11.490234 C 46.326522 11.783526 46.553086 12.051129 46.792969 12.291016 C 47.00621 12.504181 47.259545 12.704068 47.552734 12.890625 C 48.032504 13.210373 48.564012 13.449463 49.150391 13.609375 C 49.71012 13.769249 50.270349 13.903032 50.830078 14.009766 C 52.242726 14.222931 53.655712 14.315519 55.068359 14.289062 C 56.481011 14.235771 57.906402 14.143183 59.345703 14.009766 C 59.958739 13.956474 60.584917 13.902901 61.224609 13.849609 C 61.864298 13.769861 62.49048 13.689501 63.103516 13.609375 L 64.542969 13.490234 C 64.836147 13.463778 65.116276 13.449219 65.382812 13.449219 C 65.622699 13.449219 65.890404 13.437747 66.183594 13.410156 C 66.796629 13.3837 67.422807 13.356913 68.0625 13.330078 C 68.675536 13.276787 69.301714 13.25 69.941406 13.25 C 70.527789 13.25 71.127199 13.289393 71.740234 13.369141 C 72.326617 13.422432 72.886846 13.556215 73.419922 13.769531 C 73.899688 13.982697 74.352838 14.262906 74.779297 14.609375 C 75.179103 14.955958 75.564347 15.316338 75.9375 15.689453 L 76.177734 15.927734 C 76.204569 15.927734 76.21875 15.942671 76.21875 15.96875 L 76.337891 16.087891 C 76.40819 16.181623 76.493049 16.275408 76.583984 16.369141 L 75.966797 16.369141 C 75.753556 16.209267 75.607288 16.087938 75.527344 16.007812 L 75.40625 15.96875 C 75.352959 15.915459 75.272636 15.861885 75.166016 15.808594 C 75.086041 15.728468 75.007671 15.675272 74.927734 15.648438 C 74.84776 15.595146 74.806641 15.58254 74.806641 15.609375 C 74.833475 15.742792 74.847656 15.874698 74.847656 16.007812 L 74.847656 16.369141 L 68.089844 16.369141 C 67.876603 16.209267 67.769531 16.167921 67.769531 16.248047 C 67.742697 16.274504 67.730469 16.315849 67.730469 16.369141 L 54.255859 16.369141 C 54.252579 16.369141 54.272996 16.414189 54.271484 16.417969 L 53.060547 16.417969 L 46.529297 16.419922 L 41.119141 16.419922 C 41.117565 16.419922 41.118624 16.423955 41.117188 16.427734 L 30.224609 16.427734 C 30.171224 16.427734 30.197927 16.561177 30.304688 16.828125 C 30.358073 16.934708 30.411462 17.054083 30.464844 17.1875 C 30.624994 17.454335 30.785163 17.721333 30.945312 17.988281 L 31.425781 18.789062 C 31.799463 19.322883 32.173195 19.817714 32.546875 20.271484 C 32.600257 20.324776 32.680342 20.431545 32.787109 20.591797 C 32.893873 20.752049 33.000658 20.832031 33.107422 20.832031 L 37.070312 20.832031 C 37.043629 21.52599 37.043629 22.232445 37.070312 22.953125 C 37.096996 23.647122 37.177096 24.341159 37.310547 25.035156 C 37.36394 25.328826 37.417325 25.636716 37.470703 25.957031 C 37.52407 26.277157 37.565091 26.597654 37.591797 26.917969 C 37.618518 27.211638 37.630859 27.517613 37.630859 27.837891 C 37.630859 28.13156 37.565084 28.425156 37.431641 28.71875 C 37.2448 29.119078 36.963524 29.359327 36.589844 29.439453 C 36.403003 29.46591 36.216136 29.46591 36.029297 29.439453 C 35.895838 29.439453 35.883467 29.492649 35.990234 29.599609 C 36.070311 29.652901 36.150396 29.720655 36.230469 29.800781 C 36.337233 29.880907 36.444013 29.946709 36.550781 30 C 36.577465 30 36.61654 30.026409 36.669922 30.080078 C 36.77669 30.133369 36.844399 30.174715 36.871094 30.201172 C 37.004545 30.281298 37.123701 30.36128 37.230469 30.441406 C 37.337229 30.521532 37.44401 30.601515 37.550781 30.681641 L 38.873047 31.642578 C 39.380184 31.989539 39.899762 32.309884 40.433594 32.603516 C 40.967422 32.87035 41.501324 33.149728 42.035156 33.443359 C 42.729134 33.79032 43.476598 34.110703 44.277344 34.404297 C 44.624342 34.564171 45.012393 34.685499 45.439453 34.765625 C 45.919899 34.899042 46.386085 34.964844 46.839844 34.964844 C 47.21243 34.964844 47.575091 34.880079 47.931641 34.751953 C 47.901026 34.82452 47.882529 34.903176 47.849609 34.974609 C 47.662598 35.295113 47.4494 35.57531 47.208984 35.816406 C 46.94181 36.05754 46.607737 36.215993 46.207031 36.296875 C 46.153664 36.323332 46.206951 36.442707 46.367188 36.65625 C 46.447276 36.763211 46.54159 36.870358 46.648438 36.976562 C 46.862132 37.217696 47.075368 37.459219 47.289062 37.699219 L 47.724609 38.134766 C 47.405768 38.058797 47.09518 38.064536 46.792969 38.171875 C 46.469555 38.286017 46.164272 38.447015 45.878906 38.65625 C 45.593552 38.884533 45.347941 39.113513 45.138672 39.341797 C 45.100612 39.398868 45.100612 39.503935 45.138672 39.65625 C 45.15757 39.789289 45.176453 39.873936 45.195312 39.912109 C 45.233372 40.121495 45.289115 40.340076 45.365234 40.568359 C 45.422305 40.777745 45.490287 40.987993 45.566406 41.197266 L 45.794922 41.824219 C 45.851993 42.014329 45.926391 42.214556 46.021484 42.423828 L 46.080078 42.509766 C 46.098976 42.566836 46.127956 42.633016 46.166016 42.708984 L 46.279297 42.880859 C 46.298195 42.919033 46.317078 42.928235 46.335938 42.908203 C 46.351279 42.891675 46.369201 42.877631 46.384766 42.861328 C 46.387846 42.868174 46.389457 42.873993 46.392578 42.880859 L 46.451172 42.966797 C 46.470196 43.02387 46.499061 43.089918 46.537109 43.166016 L 46.650391 43.337891 C 46.669415 43.375939 46.688007 43.386212 46.707031 43.367188 C 46.954348 43.100847 47.230767 42.861612 47.535156 42.652344 C 47.820522 42.424052 48.152716 42.263091 48.533203 42.167969 C 48.799544 42.091871 49.06569 42.081599 49.332031 42.138672 C 49.579348 42.195745 49.818583 42.30093 50.046875 42.453125 C 50.180045 42.548247 50.303823 42.653432 50.417969 42.767578 C 50.440118 42.789727 50.457083 42.811835 50.478516 42.833984 C 50.48762 42.849714 50.486388 42.865279 50.501953 42.880859 C 50.520851 42.899757 50.533203 42.918602 50.533203 42.9375 L 50.589844 42.994141 C 50.608741 43.013038 50.619141 43.031884 50.619141 43.050781 C 50.6572 43.107852 50.6944 43.175985 50.732422 43.251953 L 50.847656 43.421875 L 50.847656 43.59375 C 50.866554 43.631923 50.885437 43.679257 50.904297 43.736328 C 50.904297 43.774501 50.914318 43.803368 50.933594 43.822266 C 50.952491 43.936407 50.960938 44.049921 50.960938 44.164062 C 50.979835 44.278204 51.008815 44.391718 51.046875 44.505859 C 51.065773 44.620001 51.076172 44.733515 51.076172 44.847656 C 51.09507 44.961798 51.103516 45.064912 51.103516 45.160156 L 51.103516 45.191406 C 51.122413 45.229579 51.132813 45.276914 51.132812 45.333984 C 51.132812 45.486299 51.141259 45.591367 51.160156 45.648438 C 51.179054 46.028923 51.179054 46.400245 51.160156 46.761719 C 51.160156 47.142204 51.123108 47.521859 51.046875 47.902344 L 50.990234 48.074219 C 50.990234 48.150187 50.971729 48.216367 50.933594 48.273438 C 50.591169 49.376833 50.05691 50.375408 49.333984 51.269531 C 48.611059 52.068561 47.802349 52.695777 46.908203 53.152344 C 45.956987 53.647008 44.958449 53.941979 43.912109 54.037109 C 42.86577 54.151251 41.830052 54.114316 40.802734 53.923828 C 39.889567 53.771513 39.014805 53.524066 38.177734 53.181641 C 37.340661 52.839215 36.550544 52.412113 35.808594 51.898438 C 35.390059 51.594186 34.989862 51.27016 34.609375 50.927734 C 34.297077 50.646677 34.009896 50.349571 33.736328 50.042969 C 33.64467 49.919685 33.54525 49.797112 33.466797 49.673828 L 33.009766 49.044922 L 33.009766 49.017578 C 32.990741 49.017578 32.980469 49.007306 32.980469 48.988281 C 32.961444 48.969257 32.934533 48.921801 32.896484 48.845703 C 32.858436 48.78863 32.819299 48.722582 32.78125 48.646484 L 32.667969 48.474609 L 32.324219 47.789062 L 32.240234 47.619141 C 32.22121 47.581092 32.210938 47.541955 32.210938 47.503906 C 32.191913 47.484882 32.173321 47.456017 32.154297 47.417969 L 32.068359 47.248047 C 32.068359 47.229023 32.058087 47.208477 32.039062 47.189453 L 32.039062 47.162109 L 32.039062 47.105469 C 32.020038 47.048396 32.011719 46.980394 32.011719 46.904297 L 31.953125 46.734375 C 31.934101 46.696326 31.925781 46.657189 31.925781 46.619141 C 31.925781 46.600116 31.915509 46.571252 31.896484 46.533203 C 31.87746 46.381008 31.858868 46.238639 31.839844 46.105469 C 31.820819 45.972298 31.802227 45.829929 31.783203 45.677734 L 31.783203 45.591797 L 31.783203 45.449219 C 31.764179 45.354097 31.753906 45.211728 31.753906 45.021484 C 31.734882 44.755143 31.734882 44.478725 31.753906 44.193359 C 31.772931 43.812872 31.812068 43.422949 31.869141 43.023438 C 31.926214 42.623926 32.010854 42.234003 32.125 41.853516 C 32.372317 41.13059 32.725056 40.484793 33.181641 39.914062 C 33.638225 39.324308 34.189109 38.839471 34.835938 38.458984 C 34.873986 38.420936 34.873986 38.32407 34.835938 38.171875 C 34.797889 38.000656 34.779297 37.905743 34.779297 37.886719 C 34.741248 37.677451 34.693792 37.469034 34.636719 37.259766 L 34.408203 36.630859 C 34.408203 36.611835 34.371019 36.508603 34.294922 36.318359 L 34.066406 35.689453 C 33.971284 35.480185 33.884691 35.29036 33.808594 35.119141 C 33.732496 34.947921 33.676721 34.871601 33.638672 34.890625 C 33.613182 34.905711 33.591583 34.924097 33.566406 34.939453 C 33.524292 34.846503 33.476755 34.744082 33.439453 34.660156 C 33.363356 34.488944 33.30758 34.412743 33.269531 34.431641 C 32.337338 34.983338 31.613268 35.715735 31.099609 36.628906 C 30.83327 37.085473 30.63317 37.570347 30.5 38.083984 C 30.347806 38.578649 30.2343 39.082065 30.158203 39.595703 C 30.101128 40.16645 30.09085 40.748171 30.128906 41.337891 C 30.166955 41.908637 30.234955 42.478082 30.330078 43.048828 C 30.482272 44.00006 30.700963 44.932531 30.986328 45.845703 C 31.271694 46.777886 31.593615 47.691777 31.955078 48.585938 C 32.392638 49.689333 32.916612 50.745604 33.525391 51.753906 C 33.866051 52.328768 34.255664 52.864151 34.685547 53.367188 C 35.122798 53.935617 35.606266 54.468632 36.148438 54.953125 C 36.985509 55.695075 37.907725 56.312007 38.916016 56.806641 C 39.905282 57.320298 40.942956 57.681357 42.027344 57.890625 C 43.054659 58.099893 44.092332 58.167894 45.138672 58.091797 C 46.185011 58.034724 47.191867 57.787169 48.162109 57.349609 C 49.094303 56.931074 49.931878 56.33078 50.673828 55.550781 C 51.054315 55.113221 51.38651 54.646977 51.671875 54.152344 C 51.95724 53.676735 52.204795 53.173307 52.414062 52.640625 C 52.471136 52.450381 52.518592 52.260556 52.556641 52.070312 C 52.613714 51.899093 52.66117 51.717587 52.699219 51.527344 C 52.756292 51.165881 52.785156 50.804822 52.785156 50.443359 C 52.804181 49.986775 52.795861 49.520531 52.757812 49.044922 C 52.719764 48.588337 52.662035 48.132366 52.585938 47.675781 C 52.357645 46.287003 51.996586 44.906863 51.501953 43.537109 C 51.273661 42.890281 51.026107 42.244484 50.759766 41.597656 C 50.638331 41.294069 50.496823 41.004468 50.34375 40.724609 L 52.140625 42.666016 L 52.339844 42.503906 L 49.976562 39.980469 L 50.015625 39.980469 C 50.57659 39.873886 51.017311 39.592971 51.337891 39.138672 C 51.658432 38.684335 51.886001 38.202336 52.019531 37.695312 C 52.233453 37.000711 52.354025 36.307769 52.380859 35.613281 C 52.43347 34.892034 52.446757 34.182769 52.419922 33.488281 C 52.419922 32.873881 52.407807 32.246439 52.380859 31.605469 C 52.354403 30.964385 52.313284 30.336867 52.259766 29.722656 C 52.232931 29.081573 52.220703 28.439723 52.220703 27.798828 C 52.247538 27.157631 52.259766 26.515932 52.259766 25.875 L 52.259766 23.351562 C 52.259766 22.524715 52.247311 21.683571 52.220703 20.830078 L 55.410156 20.830078 C 55.411267 20.830078 55.409121 20.826172 55.410156 20.826172 L 59.810547 20.826172 C 59.787114 21.150077 59.773438 21.465153 59.773438 21.765625 C 59.800272 22.085373 59.839287 22.419156 59.892578 22.765625 C 59.945869 23.218753 60.026192 23.67191 60.132812 24.125 C 60.239433 24.551444 60.319756 24.990232 60.373047 25.443359 C 60.426338 25.656525 60.453125 25.870781 60.453125 26.083984 C 60.47996 26.270693 60.50652 26.470353 60.533203 26.683594 C 60.560038 27.163367 60.560038 27.643274 60.533203 28.123047 C 60.533203 28.602782 60.494 29.082727 60.414062 29.5625 C 60.334088 29.935539 60.18589 30.308488 59.972656 30.681641 C 59.786099 31.05468 59.48115 31.281391 59.054688 31.361328 C 59.054688 31.494745 59.093891 31.61412 59.173828 31.720703 L 59.414062 32.121094 C 59.520683 32.227676 59.627755 32.347051 59.734375 32.480469 C 60.320757 33.25342 60.893396 34.01346 61.453125 34.759766 C 62.039507 35.479425 62.651327 36.18593 63.291016 36.878906 C 63.744132 37.332034 64.184869 37.785154 64.611328 38.238281 C 65.064441 38.691409 65.556768 39.10341 66.089844 39.476562 C 66.622916 39.876361 67.183149 40.117291 67.769531 40.197266 C 68.249297 40.223722 68.690034 40.063493 69.089844 39.716797 C 69.22311 39.636671 69.342598 39.529524 69.449219 39.396484 C 69.582485 39.263067 69.701973 39.131162 69.808594 38.998047 C 69.94186 38.811338 70.061386 38.636361 70.167969 38.476562 C 70.274589 38.316688 70.367291 38.131096 70.447266 37.917969 C 70.633823 37.544929 70.767697 37.157611 70.847656 36.757812 C 70.927631 36.358014 70.995499 35.972762 71.048828 35.599609 C 71.182094 34.746683 71.233677 33.906321 71.207031 33.080078 C 71.207031 32.253798 71.180207 31.427843 71.126953 30.601562 C 71.073624 29.748637 71.022079 28.881525 70.96875 28.001953 C 70.915421 27.122381 70.901089 26.257223 70.927734 25.404297 C 70.981026 23.831749 71.141656 22.284882 71.408203 20.765625 L 74.886719 20.765625 L 74.886719 24.404297 C 74.886719 24.937361 74.913543 25.483259 74.966797 26.042969 L 75.046875 27.642578 C 75.100166 28.362238 75.114536 29.095491 75.087891 29.841797 C 75.087891 30.561457 75.034317 31.267923 74.927734 31.960938 C 74.874443 32.30752 74.806537 32.667863 74.726562 33.041016 C 74.619942 33.414055 74.488037 33.772671 74.328125 34.119141 C 74.141568 34.438889 73.914977 34.719098 73.648438 34.958984 C 73.381905 35.198984 73.048243 35.359478 72.648438 35.439453 C 72.621603 35.439453 72.634095 35.478846 72.6875 35.558594 L 72.847656 35.798828 L 73.007812 36.041016 L 73.087891 36.121094 C 73.301132 36.361094 73.515286 36.587578 73.728516 36.800781 L 74.367188 37.439453 C 74.74034 37.839252 75.154309 38.212087 75.607422 38.558594 L 78.605469 41.796875 L 78.765625 41.638672 L 76.447266 39.080078 L 76.486328 39.080078 C 77.046057 38.973495 77.472432 38.70593 77.765625 38.279297 C 78.085486 37.826207 78.324452 37.346263 78.484375 36.839844 C 78.697616 36.14683 78.819057 35.454733 78.845703 34.761719 C 78.872538 34.042059 78.884766 33.335592 78.884766 32.642578 C 78.884766 32.029539 78.857941 31.403357 78.804688 30.763672 C 78.777853 30.123949 78.751293 29.497805 78.724609 28.884766 C 78.697775 28.245081 78.685547 27.604529 78.685547 26.964844 C 78.712382 26.325159 78.724609 25.68656 78.724609 25.046875 C 78.697775 24.327215 78.685547 23.620711 78.685547 22.927734 C 78.712382 22.208075 78.712382 21.4872 78.685547 20.767578 L 80.244141 20.767578 L 82.523438 20.767578 C 82.567696 20.767578 82.542326 20.665165 82.476562 20.5 C 82.501507 20.530236 82.508309 20.533966 82.537109 20.568359 C 82.64373 20.701777 82.750801 20.767578 82.857422 20.767578 L 89.414062 20.767578 C 89.04091 20.900995 88.721614 21.02037 88.455078 21.126953 C 87.149043 21.713347 86.096487 22.526923 85.296875 23.566406 C 84.923722 24.046179 84.629245 24.606409 84.416016 25.246094 C 84.336041 25.592676 84.284458 25.938687 84.257812 26.285156 C 84.257812 26.631739 84.284637 26.977749 84.337891 27.324219 C 84.39122 27.777346 84.483921 28.218049 84.617188 28.644531 C 84.777099 29.070975 84.950127 29.482976 85.136719 29.882812 C 85.509872 30.62908 85.948659 31.403528 86.455078 32.203125 C 87.094767 33.215963 87.815622 34.175814 88.615234 35.082031 C 88.855121 35.375323 89.120869 35.66776 89.414062 35.960938 C 89.733924 36.254229 90.067563 36.49313 90.414062 36.679688 C 90.787215 36.866396 91.16005 37.000179 91.533203 37.080078 C 91.933009 37.133369 92.346975 37.095111 92.773438 36.960938 L 92.853516 36.960938 C 92.88035 36.934481 92.919365 36.919922 92.972656 36.919922 C 93.159214 37.133087 93.359036 37.35777 93.572266 37.597656 L 94.212891 38.238281 L 95.412109 39.316406 L 98.410156 42.556641 L 98.609375 42.396484 L 96.251953 39.876953 L 96.291016 39.876953 C 96.877398 39.77037 97.318135 39.504645 97.611328 39.078125 C 97.931152 38.624997 98.170155 38.130721 98.330078 37.597656 C 98.516673 36.90468 98.623745 36.212545 98.650391 35.519531 C 98.70372 34.799909 98.730469 34.093405 98.730469 33.400391 L 98.650391 31.560547 L 98.570312 29.642578 C 98.570312 29.589287 98.555943 29.547941 98.529297 29.521484 L 98.529297 29.361328 C 99.089026 28.615023 99.729566 27.976424 100.44922 27.443359 C 101.19553 26.910295 102.03587 26.776399 102.96875 27.042969 C 103.02208 27.042969 103.04883 27.058284 103.04883 27.083984 L 103.12695 27.083984 C 103.20693 27.617049 103.24805 28.148576 103.24805 28.681641 C 103.19476 29.427946 103.08765 30.175569 102.92773 30.921875 C 102.76782 31.641535 102.54124 32.333669 102.24805 33 C 102.00816 33.613039 101.68886 34.173269 101.28906 34.679688 C 101.23577 34.759813 101.16787 34.852402 101.08789 34.958984 C 101.0346 35.03911 100.98302 35.131699 100.92969 35.238281 C 100.84971 35.318407 100.76939 35.412949 100.68945 35.519531 C 100.63612 35.599657 100.56826 35.67964 100.48828 35.759766 C 100.14177 36.079514 99.756537 36.330983 99.330078 36.517578 C 99.276787 36.544035 99.303611 36.678196 99.410156 36.917969 C 99.543422 37.131134 99.689694 37.384519 99.849609 37.677734 C 100.0362 37.944191 100.1968 38.197613 100.33008 38.4375 C 100.48999 38.650665 100.58273 38.77004 100.60938 38.796875 C 100.95588 39.303332 101.34112 39.80995 101.76758 40.316406 C 101.79441 40.316406 101.87455 40.408994 102.00781 40.595703 C 102.16772 40.782412 102.28917 40.864347 102.36914 40.837891 C 102.60903 40.731308 102.82123 40.60998 103.00781 40.476562 C 103.22105 40.316688 103.42084 40.143589 103.60742 39.957031 C 103.76733 39.797157 103.9136 39.624057 104.04688 39.4375 C 104.18014 39.250791 104.31401 39.053047 104.44727 38.839844 C 104.90037 38.226804 105.24645 37.55755 105.48633 36.837891 C 105.77951 36.038294 105.99368 35.212339 106.12695 34.359375 C 106.26022 33.506487 106.29942 32.653707 106.24609 31.800781 C 106.16612 30.894564 105.9539 30.056154 105.60742 29.283203 C 105.44747 28.883405 105.24769 28.508616 105.00781 28.162109 L 104.36719 27.044922 C 103.99403 26.51182 103.60684 25.992747 103.20703 25.486328 C 102.83388 24.953264 102.42187 24.457034 101.96875 24.003906 C 101.51564 23.550779 100.99459 23.179897 100.4082 22.886719 C 99.821813 22.593427 99.195639 22.511492 98.529297 22.644531 L 98.529297 21.765625 C 98.529297 21.445877 98.516842 21.126464 98.490234 20.806641 C 100.7558 20.833097 102.84851 20.845703 104.76758 20.845703 L 109.24414 20.845703 C 109.26795 20.845703 109.27356 20.811735 109.26562 20.765625 L 113.52148 20.765625 C 111.94891 21.671842 110.68415 22.845837 109.72461 24.285156 C 109.67128 24.365282 109.72288 24.511557 109.88281 24.724609 C 109.93614 24.831192 110.00401 24.92378 110.08398 25.003906 C 110.45714 25.536971 110.82996 26.029332 111.20312 26.482422 L 111.84375 27.203125 C 112.05699 27.443125 112.26919 27.669609 112.48242 27.882812 L 112.76172 28.162109 C 112.94831 28.321983 113.06976 28.375557 113.12305 28.322266 C 114.02928 26.962921 115.18696 25.856794 116.59961 25.003906 C 118.03891 24.124297 119.57334 23.578475 121.19922 23.365234 C 122.1321 23.231817 123.01162 23.244423 123.83789 23.404297 C 123.73127 23.777336 123.57064 24.137906 123.35742 24.484375 C 123.17086 24.830958 122.92991 25.150144 122.63672 25.443359 C 122.21026 25.869803 121.75711 26.269425 121.27734 26.642578 C 120.79759 26.989161 120.30525 27.349503 119.79883 27.722656 C 117.69318 29.268559 115.48099 30.735103 113.16211 32.121094 C 112.52242 32.494133 111.86947 32.867082 111.20312 33.240234 C 110.56344 33.586817 109.89612 33.94716 109.20312 34.320312 C 109.1498 34.346769 109.19103 34.466522 109.32422 34.679688 C 109.45748 34.892853 109.63051 35.131905 109.84375 35.398438 C 110.03035 35.638437 110.20337 35.879254 110.36328 36.119141 C 110.54988 36.332306 110.66933 36.451681 110.72266 36.478516 C 110.9359 36.718516 111.13569 36.957341 111.32227 37.197266 C 111.53551 37.437266 111.74966 37.663712 111.96289 37.876953 C 112.01622 37.930244 112.10892 38.037392 112.24219 38.197266 C 112.4021 38.35714 112.52163 38.410713 112.60156 38.357422 C 113.21461 38.037674 113.84273 37.864536 114.48242 37.837891 C 115.14877 37.784599 115.81413 37.838022 116.48047 37.998047 C 117.44 38.211212 118.3463 38.571706 119.19922 39.078125 C 120.05214 39.557898 120.87811 40.076971 121.67773 40.636719 C 121.78435 40.69001 121.87706 40.755812 121.95703 40.835938 C 122.06365 40.889229 122.15834 40.957361 122.23828 41.037109 C 122.3449 41.090401 122.45197 41.15658 122.55859 41.236328 L 122.63672 41.316406 C 122.66355 41.316406 122.69011 41.327878 122.7168 41.355469 C 122.74363 41.381925 122.77019 41.396484 122.79688 41.396484 L 123.99609 42.355469 L 125.19727 43.314453 C 125.59707 43.634201 125.99669 43.967946 126.39648 44.314453 C 127.99572 45.673798 129.58173 47.020854 131.1543 48.353516 C 132.72687 49.712861 134.36448 51.00439 136.07031 52.230469 C 137.66954 53.349927 139.36264 54.336527 141.14844 55.189453 C 142.93424 56.042341 144.78601 56.682893 146.70508 57.109375 C 148.54419 57.535819 150.43709 57.667724 152.38281 57.507812 C 153.39566 57.40123 154.35549 57.201305 155.26172 56.908203 C 156.1946 56.614912 157.1133 56.254569 158.01953 55.828125 C 158.95241 55.374997 159.85871 54.909461 160.73828 54.429688 C 161.64451 53.949914 162.56517 53.523543 163.49805 53.150391 C 164.27101 52.857099 165.05781 52.630653 165.85742 52.470703 C 166.68369 52.337286 167.52208 52.310877 168.375 52.390625 C 168.5616 52.417082 168.73462 52.431641 168.89453 52.431641 C 169.08113 52.458097 169.26851 52.49749 169.45508 52.550781 C 170.04146 52.710655 170.57492 52.923072 171.05469 53.189453 C 171.10802 53.21591 171.14718 53.242697 171.17383 53.269531 L 171.33398 53.349609 C 171.4939 53.509483 171.64016 53.670129 171.77344 53.830078 L 172.25391 54.310547 C 172.28074 54.363838 172.37325 54.469032 172.5332 54.628906 C 172.7198 54.78878 172.83925 54.842354 172.89258 54.789062 C 172.97255 54.708937 172.93335 54.577409 172.77344 54.390625 L 172.5332 54.070312 C 171.76024 52.950854 170.9199 51.910718 170.01367 50.951172 C 169.74714 50.684715 169.48139 50.431293 169.21484 50.191406 C 168.94831 49.951406 168.66819 49.72496 168.375 49.511719 C 168.02849 49.271719 167.67003 49.072021 167.29688 48.912109 C 166.95037 48.778692 166.57559 48.659317 166.17578 48.552734 C 165.34952 48.339569 164.51113 48.259209 163.6582 48.3125 C 162.83195 48.365791 162.01836 48.499574 161.21875 48.712891 C 160.20591 49.006182 159.23366 49.391321 158.30078 49.871094 C 157.3679 50.377513 156.43485 50.871827 155.50195 51.351562 C 154.56908 51.831336 153.60924 52.243337 152.62305 52.589844 C 151.66351 52.962883 150.6645 53.230675 149.625 53.390625 C 148.50554 53.550499 147.38508 53.589892 146.26562 53.509766 C 145.17282 53.42964 144.08109 53.256918 142.98828 52.990234 C 141.76221 52.696943 140.56144 52.309851 139.38867 51.830078 C 138.24256 51.350305 137.10969 50.804446 135.99023 50.191406 C 135.43051 49.871658 134.88464 49.537913 134.35156 49.191406 C 133.81849 48.844824 133.28503 48.486434 132.75195 48.113281 C 132.21888 47.740242 131.69978 47.367293 131.19336 46.994141 C 130.71359 46.621101 130.2069 46.206996 129.67383 45.753906 C 128.63433 44.90098 127.60855 44.033869 126.5957 43.154297 C 125.58286 42.274687 124.56948 41.409567 123.55664 40.556641 C 122.5438 39.703715 121.5056 38.86339 120.43945 38.037109 C 119.39997 37.210867 118.32063 36.452742 117.20117 35.759766 C 117.65429 35.493309 118.09307 35.225517 118.51953 34.958984 C 118.94599 34.692528 119.37237 34.412356 119.79883 34.119141 C 120.38521 33.746101 120.95785 33.360736 121.51758 32.960938 L 123.19727 31.761719 L 124.7168 30.640625 C 125.22322 30.240789 125.68876 29.814418 126.11523 29.361328 C 126.48839 28.934846 126.79527 28.481726 127.03516 28.001953 C 127.27504 27.495534 127.35537 26.949675 127.27539 26.363281 C 127.22206 25.990242 127.11499 25.64408 126.95508 25.324219 C 126.79517 25.004471 126.60971 24.697475 126.39648 24.404297 C 126.10331 23.977815 125.79641 23.578193 125.47656 23.205078 C 125.18338 22.805242 124.86408 22.418075 124.51758 22.044922 L 123.87695 21.40625 C 123.6904 21.193085 123.49057 20.978828 123.27734 20.765625 L 130.59375 20.765625 C 130.64708 20.765625 130.62022 20.64625 130.51367 20.40625 L 130.35352 20.005859 C 130.19357 19.712568 130.0349 19.446918 129.875 19.207031 L 129.39453 18.40625 C 129.20797 18.139793 129.02055 17.888324 128.83398 17.648438 C 128.67407 17.381981 128.48861 17.128558 128.27539 16.888672 C 128.2221 16.835381 128.14178 16.740461 128.03516 16.607422 C 127.92854 16.447548 127.82146 16.369141 127.71484 16.369141 L 103.9668 16.369141 C 103.94601 16.369141 103.94739 16.406825 103.95117 16.447266 L 101.49023 16.447266 L 98.292969 16.447266 C 97.146857 16.420809 95.972859 16.408203 94.773438 16.408203 L 94.693359 16.369141 L 94.654297 16.369141 L 94.654297 16.408203 L 90.255859 16.408203 L 86.138672 16.408203 C 84.832641 16.381746 83.646226 16.369141 82.580078 16.369141 L 79.941406 16.369141 C 79.895409 16.369141 79.921007 16.487122 79.994141 16.685547 C 79.96655 16.651531 79.958247 16.646351 79.925781 16.607422 C 79.819161 16.447548 79.714042 16.369141 79.607422 16.369141 L 77.498047 16.369141 C 77.483685 16.342684 77.473876 16.315897 77.458984 16.289062 L 76.980469 15.408203 C 76.820557 15.114912 76.645565 14.822475 76.458984 14.529297 C 76.325718 14.369423 76.220562 14.208816 76.140625 14.048828 C 76.034005 13.888954 75.912563 13.742679 75.779297 13.609375 L 75.740234 13.570312 L 75.621094 13.449219 C 75.594259 13.395927 75.526542 13.315567 75.419922 13.208984 C 75.339947 13.102402 75.259625 13.009813 75.179688 12.929688 C 75.073067 12.823105 74.980365 12.715958 74.900391 12.609375 C 74.713795 12.39621 74.540771 12.196361 74.380859 12.009766 C 74.194264 11.7966 73.99448 11.584335 73.78125 11.371094 C 73.434743 10.998054 73.088687 10.664272 72.742188 10.371094 C 72.369035 10.051346 71.969428 9.7587576 71.542969 9.4921875 C 70.55678 8.9324773 69.502271 8.6523438 68.382812 8.6523438 C 67.236701 8.6523438 66.118196 8.6787526 65.025391 8.7324219 C 64.385702 8.7857132 63.745158 8.8251058 63.105469 8.8515625 C 62.465776 8.8515625 61.827193 8.8779713 61.1875 8.9316406 C 60.574464 9.0117666 59.987464 9.091749 59.427734 9.171875 C 58.841348 9.2251663 58.241942 9.2787399 57.628906 9.3320312 C 56.189602 9.4654486 54.76421 9.5725957 53.351562 9.6523438 C 51.938911 9.7056351 50.51157 9.6522127 49.072266 9.4921875 C 48.512536 9.4388962 47.96667 9.3589138 47.433594 9.2519531 C 46.873865 9.1185358 46.327998 8.945814 45.794922 8.7324219 L 45.314453 8.4921875 C 45.154541 8.4120615 45.008274 8.3052923 44.875 8.171875 C 44.848165 8.1454183 44.809151 8.0792389 44.755859 7.9726562 L 44.355469 7.3320312 L 43.875 6.6933594 L 43.835938 6.6132812 L 43.714844 6.4921875 C 43.661515 6.4388962 43.622349 6.4121094 43.595703 6.4121094 z M 63.931641 20.767578 L 67.128906 20.767578 C 67.102072 21.194022 67.077427 21.606061 67.050781 22.005859 C 67.050781 22.405658 67.063274 22.817697 67.089844 23.244141 C 67.089844 24.177004 67.129047 25.110106 67.208984 26.042969 C 67.288959 26.97587 67.342495 27.910849 67.369141 28.84375 C 67.369141 29.536726 67.342316 30.243231 67.289062 30.962891 C 67.262228 31.655867 67.169715 32.348001 67.009766 33.041016 C 66.876499 33.654055 66.676673 34.212331 66.410156 34.71875 C 66.356827 34.772041 66.317661 34.827568 66.291016 34.880859 L 66.25 34.880859 C 66.116734 35.094025 65.970466 35.308281 65.810547 35.521484 C 65.650635 35.708193 65.463245 35.866923 65.25 36 C 65.063405 36.106583 64.877983 36.172762 64.691406 36.199219 C 64.504849 36.199219 64.317421 36.184282 64.130859 36.158203 C 63.997593 36.104912 63.878105 36.065519 63.771484 36.039062 L 63.451172 35.878906 C 63.397881 35.825615 63.331928 35.798828 63.251953 35.798828 C 63.198662 35.772371 63.145088 35.732979 63.091797 35.679688 L 62.972656 35.558594 L 62.931641 35.558594 C 62.878311 35.505302 62.824776 35.467863 62.771484 35.441406 L 62.652344 35.320312 C 62.918876 35.240187 63.131092 35.081835 63.291016 34.841797 C 63.477573 34.601797 63.611443 34.334194 63.691406 34.041016 C 63.798027 33.747724 63.863979 33.440955 63.890625 33.121094 C 63.943916 32.801346 63.970703 32.52309 63.970703 32.283203 C 63.997538 31.910164 63.997538 31.549632 63.970703 31.203125 C 63.970703 30.856542 63.943879 30.4962 63.890625 30.123047 C 63.86379 29.750008 63.812397 29.391429 63.732422 29.044922 C 63.679131 28.698339 63.625557 28.337997 63.572266 27.964844 C 63.518974 27.618261 63.465401 27.284705 63.412109 26.964844 C 63.358818 26.618261 63.305244 26.257918 63.251953 25.884766 C 63.225118 25.484967 63.225118 25.085383 63.251953 24.685547 C 63.278788 24.259103 63.332172 23.847064 63.412109 23.447266 C 63.492084 23.047467 63.584786 22.647883 63.691406 22.248047 C 63.798027 21.848248 63.890728 21.448627 63.970703 21.048828 C 63.997538 20.995537 63.985083 20.900617 63.931641 20.767578 z M 92.052734 20.808594 L 94.732422 20.808594 L 94.732422 23.527344 C 94.599156 23.340635 94.465282 23.167913 94.332031 23.007812 L 93.931641 22.447266 C 93.665108 22.100683 93.38499 21.781497 93.091797 21.488281 C 92.798619 21.19499 92.45254 20.968506 92.052734 20.808594 z M 41.875 20.830078 L 48.451172 20.830078 L 48.451172 25.234375 C 48.451172 25.768611 48.465542 26.318289 48.492188 26.878906 C 48.519022 27.413142 48.545431 27.960073 48.572266 28.521484 C 48.624877 29.242732 48.638163 29.9643 48.611328 30.685547 C 48.611328 30.992067 48.597401 31.29387 48.578125 31.595703 C 48.477816 31.545435 48.384885 31.486319 48.28125 31.439453 C 47.987656 31.306036 47.693992 31.172593 47.400391 31.039062 C 47.13348 30.905645 46.854152 30.786648 46.560547 30.679688 C 46.50718 30.653231 46.373688 30.611885 46.160156 30.558594 C 45.946613 30.478468 45.813117 30.465862 45.759766 30.519531 C 45.332702 30.94658 44.891255 31.3594 44.4375 31.759766 C 43.983745 32.160055 43.449842 32.426978 42.835938 32.560547 C 42.702482 32.587004 42.568987 32.603516 42.435547 32.603516 L 42.035156 32.603516 L 41.955078 32.560547 C 41.768256 32.42713 41.595682 32.308133 41.435547 32.201172 C 41.275408 32.067755 41.100911 31.93435 40.914062 31.800781 C 41.154289 31.800781 41.367854 31.759813 41.554688 31.679688 C 41.768231 31.573105 41.942732 31.412875 42.076172 31.199219 C 42.23631 30.959219 42.328747 30.692069 42.355469 30.398438 C 42.382303 30.078312 42.382303 29.772109 42.355469 29.478516 C 42.355473 29.15839 42.328644 28.837893 42.275391 28.517578 C 42.221986 28.197452 42.168601 27.876918 42.115234 27.556641 C 42.035184 27.102871 41.96942 26.661462 41.916016 26.234375 C 41.862649 25.780643 41.821643 25.326817 41.794922 24.873047 C 41.768087 24.179088 41.768087 23.513601 41.794922 22.873047 C 41.848289 22.205733 41.875 21.524075 41.875 20.830078 z M 94.123047 24.904297 C 94.329598 24.919415 94.532519 24.950237 94.732422 25.003906 L 94.732422 25.044922 L 94.732422 25.164062 L 94.732422 25.644531 C 94.732422 25.804405 94.744877 25.963135 94.771484 26.123047 C 94.504952 26.496086 94.251602 26.883405 94.011719 27.283203 C 93.798478 27.683002 93.586276 28.068253 93.373047 28.441406 C 93.106515 28.921179 92.799625 29.454622 92.453125 30.041016 C 92.133301 30.600726 91.760444 31.107457 91.333984 31.560547 C 90.907525 32.013674 90.427607 32.374093 89.894531 32.640625 C 89.388109 32.880625 88.801111 32.893231 88.134766 32.679688 C 88.001499 32.626396 87.828472 32.546414 87.615234 32.439453 C 87.5884 32.386162 87.576172 32.334541 87.576172 32.28125 C 87.41626 31.694856 87.335938 31.081091 87.335938 30.441406 C 87.362772 29.828367 87.521249 29.255759 87.814453 28.722656 C 88.107631 28.162946 88.482431 27.656253 88.935547 27.203125 C 89.868429 26.216933 90.986938 25.537215 92.292969 25.164062 C 92.692779 25.030645 93.092382 24.950663 93.492188 24.923828 C 93.705428 24.897371 93.916481 24.889179 94.123047 24.904297 z M 32.097656 47.361328 C 32.097656 47.380352 32.105976 47.390625 32.125 47.390625 L 32.125 47.417969 C 32.144024 47.494066 32.162616 47.551795 32.181641 47.589844 C 32.181641 47.627892 32.154729 47.551572 32.097656 47.361328 z "
       id="path892"
       transform="matrix(0.26458333,0,0,0.26458333,0,280.06666)"
       inkscape:export-xdpi="250"
       inkscape:export-ydpi="250" />
    <flowRoot
       xml:space="preserve"
       id="flowRoot819"
       style="fill:black;fill-opacity:1;stroke:none;font-family:Raleway;font-style:normal;font-weight:bold;font-size:18.66666667px;line-height:1.25;letter-spacing:0.30000001px;word-spacing:0px;-inkscape-font-specification:'Raleway Bold';font-stretch:normal;font-variant:normal;text-anchor:start;text-align:start;writing-mode:lr;font-variant-ligatures:normal;font-variant-caps:normal;font-variant-numeric:normal;font-feature-settings:normal"><flowRegion
         id="flowRegion821"><rect
           id="rect823"
           width="81.317276"
           height="41.416256"
           x="-113.13708"
           y="73.09137" /></flowRegion><flowPara
         id="flowPara825" /></flowRoot>    <flowRoot
       xml:space="preserve"
       id="flowRoot827"
       style="fill:black;fill-opacity:1;stroke:none;font-family:Raleway;font-style:normal;font-weight:bold;font-size:18.66666667px;line-height:1.25;letter-spacing:0.30000001px;word-spacing:0px;-inkscape-font-specification:'Raleway Bold';font-stretch:normal;font-variant:normal;text-anchor:start;text-align:start;writing-mode:lr;font-variant-ligatures:normal;font-variant-caps:normal;font-variant-numeric:normal;font-feature-settings:normal"><flowRegion
         id="flowRegion829"><rect
           id="rect831"
           width="116.67262"
           height="62.629456"
           x="-107.58125"
           y="64.505074" /></flowRegion><flowPara
         id="flowPara833" /></flowRoot>    <flowRoot
       xml:space="preserve"
       id="flowRoot848"
       style="fill:black;fill-opacity:1;stroke:none;font-family:Raleway;font-style:normal;font-weight:bold;font-size:18.66666667px;line-height:1.25;letter-spacing:0.30000001px;word-spacing:0px;-inkscape-font-specification:'Raleway Bold';font-stretch:normal;font-variant:normal;text-anchor:start;text-align:start;writing-mode:lr;font-variant-ligatures:normal;font-variant-caps:normal;font-variant-numeric:normal;font-feature-settings:normal"><flowRegion
         id="flowRegion850"><rect
           id="rect852"
           width="74.64286"
           height="50"
           x="-157.14285"
           y="75.785713" /></flowRegion><flowPara
         id="flowPara854" /></flowRoot>    <flowRoot
       xml:space="preserve"
       id="flowRoot1542"
       style="fill:black;fill-opacity:1;stroke:none;font-family:'AMS Manthan';font-style:normal;font-weight:bold;font-size:18.66666667px;line-height:1.25;letter-spacing:0.30000001px;word-spacing:0px;-inkscape-font-specification:'AMS Manthan Bold';font-stretch:normal;font-variant:normal;text-anchor:start;text-align:start;writing-mode:lr;font-variant-ligatures:normal;font-variant-caps:normal;font-variant-numeric:normal;font-feature-settings:normal;"><flowRegion
         id="flowRegion1544"
         style="-inkscape-font-specification:'AMS Manthan Bold';font-family:'AMS Manthan';font-weight:bold;font-style:normal;font-stretch:normal;font-variant:normal;"><rect
           id="rect1546"
           width="151.42857"
           height="32.857143"
           x="-59.285713"
           y="106.14286"
           style="-inkscape-font-specification:'AMS Manthan Bold';font-family:'AMS Manthan';font-weight:bold;font-style:normal;font-stretch:normal;font-variant:normal;" /></flowRegion><flowPara
         id="flowPara1548"></flowPara></flowRoot>  </g>
</svg>
